<?xml version="1.0" encoding="utf-8"?>
<!-- Generator: Adobe Illustrator 27.5.0, SVG Export Plug-In . SVG Version: 6.00 Build 0)  -->
<svg version="1.1" xmlns="http://www.w3.org/2000/svg" xmlns:xlink="http://www.w3.org/1999/xlink" x="0px" y="0px"
	 viewBox="0 0 750 500" style="enable-background:new 0 0 750 500;" xml:space="preserve">
<g id="BACKGROUND">
	<linearGradient id="SVGID_1_" gradientUnits="userSpaceOnUse" x1="52.6628" y1="-117.9902" x2="621.2062" y2="531.0767">
		<stop  offset="0" style="stop-color:#565865"/>
		<stop  offset="0.3501" style="stop-color:#2F3235"/>
		<stop  offset="0.3673" style="stop-color:#2C2F32"/>
		<stop  offset="0.5261" style="stop-color:#17181E"/>
		<stop  offset="0.6766" style="stop-color:#0A0B12"/>
		<stop  offset="0.809" style="stop-color:#06060E"/>
	</linearGradient>
	<rect style="fill:url(#SVGID_1_);" width="750" height="500"/>
</g>
<g id="OBJECTS">
	<g>
		<defs>
			<rect id="SVGID_00000122700862587746254180000003903807186698566564_" width="750" height="500"/>
		</defs>
		<clipPath id="SVGID_00000050652302094954855160000003372523840843753604_">
			<use xlink:href="#SVGID_00000122700862587746254180000003903807186698566564_"  style="overflow:visible;"/>
		</clipPath>
		<g style="clip-path:url(#SVGID_00000050652302094954855160000003372523840843753604_);">
			
				<linearGradient id="SVGID_00000180342312799515815940000005199103970382089917_" gradientUnits="userSpaceOnUse" x1="862.7402" y1="420.2903" x2="581.4865" y2="294.8292">
				<stop  offset="0" style="stop-color:#0E0F13"/>
				<stop  offset="0.0583" style="stop-color:#0C0D12"/>
				<stop  offset="0.4717" style="stop-color:#03030B"/>
				<stop  offset="1" style="stop-color:#000009"/>
			</linearGradient>
			<path style="fill:url(#SVGID_00000180342312799515815940000005199103970382089917_);" d="M759.385,651.152L908.567,4.261
				c-6.812,14.942-65.132,19.181-121.592,23.288c-51.303,3.73-104.309,7.586-109.77,19.564L401.811,651.152H759.385z"/>
			
				<linearGradient id="SVGID_00000082366154639265628320000007892444743836036766_" gradientUnits="userSpaceOnUse" x1="543.7049" y1="337.5516" x2="717.5329" y2="417.016">
				<stop  offset="0.0302" style="stop-color:#4F5458"/>
				<stop  offset="0.0751" style="stop-color:#393D41"/>
				<stop  offset="0.1369" style="stop-color:#222428"/>
				<stop  offset="0.193" style="stop-color:#131418"/>
				<stop  offset="0.2381" style="stop-color:#0E0F13"/>
				<stop  offset="1" style="stop-color:#06060E"/>
			</linearGradient>
			<path style="fill:url(#SVGID_00000082366154639265628320000007892444743836036766_);" d="M676.347,46.969L400.888,651.152
				h145.818L805.337,83.879c0.079-0.174,0.143-0.351,0.189-0.531c2.807-10.874-30.642-13.785-62.99-16.598
				c-34.325-2.988-69.823-6.075-66.541-18.791C676.082,47.623,676.199,47.293,676.347,46.969z"/>
			
				<linearGradient id="SVGID_00000049208948569940802210000009070779483581505214_" gradientUnits="userSpaceOnUse" x1="2855.6543" y1="1403.1617" x2="2469.6245" y2="1451.0829" gradientTransform="matrix(0.4997 0.2528 -0.6978 1.3797 224.03 -2274.0769)">
				<stop  offset="0" style="stop-color:#0E0F13"/>
				<stop  offset="0.0583" style="stop-color:#0C0D12"/>
				<stop  offset="0.4717" style="stop-color:#03030B"/>
				<stop  offset="1" style="stop-color:#000009"/>
			</linearGradient>
			<path style="fill:url(#SVGID_00000049208948569940802210000009070779483581505214_);" d="M547.627,651.152L806.203,83.999
				c-4.514,9.902-52.871,10.938-108.683,12.138c-66.342,1.424-141.324,3.031-149.311,20.55L304.535,651.152H547.627z"/>
			
				<linearGradient id="SVGID_00000087412809680751546060000010924288991645761962_" gradientUnits="userSpaceOnUse" x1="416.0088" y1="379.6574" x2="621.2919" y2="470.7103">
				<stop  offset="0.0302" style="stop-color:#4F5458"/>
				<stop  offset="0.0751" style="stop-color:#393D41"/>
				<stop  offset="0.1369" style="stop-color:#222428"/>
				<stop  offset="0.193" style="stop-color:#131418"/>
				<stop  offset="0.2381" style="stop-color:#0E0F13"/>
				<stop  offset="1" style="stop-color:#06060E"/>
			</linearGradient>
			<path style="fill:url(#SVGID_00000087412809680751546060000010924288991645761962_);" d="M547.344,116.564L303.615,651.152
				h188.021l205.113-449.888c0.198-0.435,0.355-0.877,0.471-1.326c5.011-19.414-37.061-31.375-77.743-42.943
				c-39.625-11.266-77.049-21.91-72.63-39.031C546.969,117.49,547.135,117.023,547.344,116.564z"/>
			
				<linearGradient id="SVGID_00000053531046642477230660000017746462286441582264_" gradientUnits="userSpaceOnUse" x1="2780.4241" y1="1464.7183" x2="2334.5007" y2="1514.6349" gradientTransform="matrix(0.4997 0.2528 -0.6978 1.3797 224.03 -2274.0769)">
				<stop  offset="0" style="stop-color:#0E0F13"/>
				<stop  offset="0.0583" style="stop-color:#0C0D12"/>
				<stop  offset="0.4717" style="stop-color:#03030B"/>
				<stop  offset="1" style="stop-color:#000009"/>
			</linearGradient>
			<path style="fill:url(#SVGID_00000053531046642477230660000017746462286441582264_);" d="M492.56,651.152L697.6,201.422
				c-7.886,17.298-73.044,20.223-141.914,23.31c-38.671,1.736-78.659,3.529-109.573,7.957c-32.483,4.65-50.518,11.671-54.964,21.422
				l-181.019,397.04H492.56z"/>
			
				<linearGradient id="SVGID_00000060013453334195853150000010275948846727392692_" gradientUnits="userSpaceOnUse" x1="2300.0227" y1="1551.7688" x2="2730.71" y2="1545.3818" gradientTransform="matrix(0.4997 0.2528 -0.6978 1.3797 224.03 -2274.0769)">
				<stop  offset="0.0302" style="stop-color:#4F5458"/>
				<stop  offset="0.0751" style="stop-color:#393D41"/>
				<stop  offset="0.1369" style="stop-color:#222428"/>
				<stop  offset="0.193" style="stop-color:#131418"/>
				<stop  offset="0.2381" style="stop-color:#0E0F13"/>
				<stop  offset="1" style="stop-color:#06060E"/>
			</linearGradient>
			<path style="fill:url(#SVGID_00000060013453334195853150000010275948846727392692_);" d="M390.301,253.942l-181.096,397.21
				h224.352l137.025-300.547c0.14-0.307,0.251-0.619,0.333-0.935c3.852-14.923-36.636-26.075-79.496-37.889
				c-26.028-7.171-52.936-14.586-72.737-23.453c-22.598-10.124-32.134-20.664-29.152-32.215
				C389.722,255.371,389.98,254.647,390.301,253.942z"/>
			
				<linearGradient id="SVGID_00000047043444154668944530000009177140657411852194_" gradientUnits="userSpaceOnUse" x1="2695.4531" y1="1535.2866" x2="2211.5999" y2="1590.5269" gradientTransform="matrix(0.4997 0.2528 -0.6978 1.3797 224.03 -2274.0769)">
				<stop  offset="0" style="stop-color:#0E0F13"/>
				<stop  offset="0.0583" style="stop-color:#0C0D12"/>
				<stop  offset="0.4717" style="stop-color:#03030B"/>
				<stop  offset="1" style="stop-color:#000009"/>
			</linearGradient>
			<path style="fill:url(#SVGID_00000047043444154668944530000009177140657411852194_);" d="M434.48,651.152L571.44,350.749
				c-6.62,14.521-69.668,18.558-142.403,23.22c-84.265,5.396-179.473,11.497-190.776,36.288L128.432,651.152H434.48z"/>
			
				<linearGradient id="SVGID_00000044877728841368702740000017143941258071816347_" gradientUnits="userSpaceOnUse" x1="492.6057" y1="136.7047" x2="742.0518" y2="355.517">
				<stop  offset="0.0135" style="stop-color:#1F2226"/>
				<stop  offset="0.4653" style="stop-color:#1B1E22"/>
				<stop  offset="0.9368" style="stop-color:#101115"/>
				<stop  offset="1" style="stop-color:#0E0F13"/>
			</linearGradient>
			<path style="fill:url(#SVGID_00000044877728841368702740000017143941258071816347_);" d="M786.975,27.549
				c58.418-4.249,118.827-8.641,122.113-24.882c-4.006,15.519-63.995,19.88-122.005,24.099
				c-55.354,4.024-107.637,7.823-111.088,21.193c-3.282,12.716,32.216,15.803,66.541,18.791c32.348,2.813,65.797,5.724,62.99,16.598
				c-2.514,9.741-53.678,10.838-107.845,12.003c-34.747,0.744-70.683,1.516-99.084,4.505c-32.562,3.424-49.489,9.348-51.751,18.109
				c-4.419,17.121,33.005,27.765,72.63,39.031c40.683,11.568,82.754,23.528,77.743,42.942c-2.059,7.976-17.073,13.693-45.896,17.473
				c-26.084,3.423-59.799,4.935-95.496,6.535c-78.586,3.525-159.845,7.173-166.297,32.167c-2.982,11.551,6.554,22.092,29.152,32.215
				c19.801,8.866,46.709,16.282,72.737,23.453c42.86,11.814,83.348,22.966,79.496,37.889c-3.788,14.675-70.806,18.97-141.76,23.513
				c-44.355,2.841-90.221,5.782-126.405,11.407c-41.341,6.426-62.972,15.491-65.225,27.733
				c6.846-26.524,104.952-32.811,191.51-38.354c74.484-4.775,138.809-8.894,142.783-24.286c4.006-15.519-36.783-26.757-79.96-38.653
				c-50.587-13.939-107.92-29.739-101.425-54.904c2.789-10.806,21.001-18.473,55.68-23.437c30.914-4.428,70.902-6.221,109.573-7.957
				c70.777-3.173,137.633-6.175,142.436-24.781c5.164-20.006-37.218-32.057-78.202-43.706c-39.308-11.18-76.437-21.737-72.17-38.267
				c4.835-18.733,81.833-20.383,149.77-21.841c56.987-1.226,106.201-2.28,108.91-12.775c2.994-11.601-29.365-14.413-63.618-17.396
				c-33.928-2.95-69.008-6.004-65.913-17.993C680.165,35.317,734.462,31.367,786.975,27.549z"/>
		</g>
	</g>
</g>
</svg>
